<svg xmlns="http://www.w3.org/2000/svg" viewBox="0 0 40 40" role="img" aria-labelledby="title">
  <title id="title">AI Clothes Video</title>
  <rect width="40" height="40" rx="8" fill="#d93f32"/>
  <path d="M11 12 16 8c1 2 7 2 8 0l5 4 4 6-5 3-2-3v14H14V18l-2 3-5-3 4-6Z" fill="#fff" opacity=".24" transform="translate(-4)"/>
  <path d="M11 12 16 8c1 2 7 2 8 0l5 4 4 6-5 3-2-3v14H14V18l-2 3-5-3 4-6Z" fill="#fff" opacity=".5"/>
  <path d="M11 12 16 8c1 2 7 2 8 0l5 4 4 6-5 3-2-3v14H14V18l-2 3-5-3 4-6Z" fill="#fff" transform="translate(4)"/>
  <path d="M16 8c1 2 7 2 8 0" fill="none" stroke="#d93f32" stroke-width="1.4" transform="translate(4)"/>
  <path d="m22 18.5 6 3.5-6 3.5Z" fill="#d93f32"/>
</svg>
